<?xml version="1.0" encoding="UTF-8"?>
<svg version="1.1" xmlns="http://www.w3.org/2000/svg" width="800" height="260">
<path d="M0 0 C264 0 528 0 800 0 C800 85.8 800 171.6 800 260 C536 260 272 260 0 260 C0 174.2 0 88.4 0 0 Z " fill="#FEFEFE" transform="translate(0,0)"/>
<path d="M0 0 C16.63413497 14.20659951 25.38280497 34.66378193 27.18017578 56.15429688 C28.61214187 78.67568465 20.3033105 99.12954367 5.75 116.1875 C-5.80414151 128.53437849 -19.82034129 135.71290572 -36 140 C-36.79535156 140.226875 -37.59070313 140.45375 -38.41015625 140.6875 C-58.71208851 145.70204244 -79.43408762 140.49142164 -97 130 C-112.07115955 120.39911318 -123.84544719 106.9090482 -130 90 C-130.22703613 89.38092773 -130.45407227 88.76185547 -130.68798828 88.12402344 C-137.97487449 67.5591397 -137.10599656 45.36465408 -127.75 25.625 C-116.84139619 5.40248234 -100.62618822 -9.11590007 -79 -17 C-50.79288758 -25.17890657 -22.42035038 -18.70150439 0 0 Z " fill="#010101" transform="translate(161,69)"/>
<path d="M0 0 C5.28 0 10.56 0 16 0 C16 25.41 16 50.82 16 77 C10.72 77 5.44 77 0 77 C-0.33 75.68 -0.66 74.36 -1 73 C-1.928125 73.639375 -2.85625 74.27875 -3.8125 74.9375 C-9.64863006 78.71381945 -15.2206967 78.60828599 -22 78 C-28.10821262 76.21417248 -32.44853847 71.05843305 -36 66 C-38.83688514 59.58617272 -39.20230634 51.48962494 -37.3828125 44.6953125 C-34.54124036 38.23262187 -28.59338092 32.57154043 -22 30 C-15.00897776 29.24074935 -9.19012863 29.63579966 -3 33 C-2.01 33.495 -2.01 33.495 -1 34 C-0.67 22.78 -0.34 11.56 0 0 Z " fill="#040404" transform="translate(241,34)"/>
<path d="M0 0 C5.28 0 10.56 0 16 0 C16 25.41 16 50.82 16 77 C11.05 77 6.1 77 1 77 C0.67 75.68 0.34 74.36 0 73 C-0.928125 73.639375 -1.85625 74.27875 -2.8125 74.9375 C-8.42036734 78.56612004 -13.49006617 78.51058305 -20 78 C-26.36510248 76.39097781 -31.16750203 72.62050121 -34.8125 67.25 C-38.28793729 60.55369567 -38.02320253 53.27935517 -37 46 C-34.491399 39.03951553 -30.33967974 34.63944578 -24 31 C-20.76179137 29.94792378 -17.64424104 29.77103702 -14.25 29.6875 C-13.26515625 29.65011719 -12.2803125 29.61273438 -11.265625 29.57421875 C-8 30 -8 30 0 34 C0 22.78 0 11.56 0 0 Z " fill="#030303" transform="translate(564,34)"/>
<path d="M0 0 C2.9375 1.625 2.9375 1.625 5.9375 3.625 C5.9375 2.305 5.9375 0.985 5.9375 -0.375 C11.2175 -0.375 16.4975 -0.375 21.9375 -0.375 C21.9375 14.805 21.9375 29.985 21.9375 45.625 C16.6575 45.625 11.3775 45.625 5.9375 45.625 C5.4425 43.645 5.4425 43.645 4.9375 41.625 C4.009375 42.264375 3.08125 42.90375 2.125 43.5625 C-3.72594878 47.34840804 -9.27267165 47.12027926 -16.0625 46.625 C-22.19924725 44.50503277 -26.53493831 40.0003321 -30.0625 34.625 C-33.20907122 28.08802732 -33.16914708 20.20755872 -31.48046875 13.21484375 C-28.96409834 7.43523501 -24.05134595 3.30921221 -19.0625 -0.375 C-13.16542006 -2.34069331 -5.78376756 -2.45221837 0 0 Z " fill="#050505" transform="translate(390.0625,65.375)"/>
<path d="M0 0 C2.85282169 1.02881286 4.5664196 2.14584351 7 4 C7.33 3.01 7.66 2.02 8 1 C13.28 1 18.56 1 24 1 C24 16.18 24 31.36 24 47 C18.72 47 13.44 47 8 47 C7.67 46.01 7.34 45.02 7 44 C6.13375 44.66 5.2675 45.32 4.375 46 C-1.32464098 49.22052885 -7.68156649 48.95062405 -14 48 C-19.42581741 45.69326124 -23.86449596 42.01680646 -27 37 C-29.94299709 29.5780621 -30.49468204 20.92202273 -28.16015625 13.234375 C-22.18842531 1.41155414 -12.37561666 -1.05998051 0 0 Z " fill="#030303" transform="translate(684,64)"/>
<path d="M0 0 C4.21749896 1.70494639 6.46190968 4.26361528 9 8 C9.50120544 11.10447693 9.50120544 11.10447693 9.50170898 14.62280273 C9.50711197 15.26738434 9.51251495 15.91196594 9.51808167 16.57608032 C9.53053524 18.69572623 9.51410102 20.81400451 9.49609375 22.93359375 C9.49624884 24.41423107 9.49773945 25.89486879 9.50050354 27.37550354 C9.50188607 30.47488407 9.48935613 33.57380104 9.46655273 36.6730957 C9.43819287 40.63534423 9.44090037 44.59682148 9.45364285 48.55912685 C9.46061678 51.61589582 9.45279089 54.67248827 9.44038582 57.7292347 C9.43588618 59.18958928 9.43552147 60.64996291 9.43945122 62.11031914 C9.44237982 64.15653816 9.4257796 66.20171574 9.40405273 68.24780273 C9.39864975 69.40964584 9.39324677 70.57148895 9.38768005 71.76853943 C8.81776402 76.51900616 7.0925958 79.81099869 3.875 83.3125 C-0.06755891 85.62661067 -3.43979356 86.31868331 -8 86 C-12.09721594 84.79284799 -15.03864494 83.31675269 -17.58265686 79.83226013 C-19.28999426 76.42050788 -19.38660603 74.09188715 -19.40405273 70.28540039 C-19.41091599 69.63106522 -19.41777924 68.97673004 -19.42485046 68.30256653 C-19.44307428 66.15070578 -19.43928759 63.99957723 -19.43359375 61.84765625 C-19.43815783 60.34459701 -19.44346408 58.84153986 -19.44947815 57.33848572 C-19.45840062 54.19212351 -19.45599629 51.04601523 -19.44604492 47.8996582 C-19.43455825 43.87678248 -19.45476546 39.85478495 -19.48396206 35.83202457 C-19.50234966 32.72894262 -19.50202655 29.6260701 -19.49632454 26.52294731 C-19.49617162 25.04024461 -19.50219132 23.55752744 -19.51461601 22.07487679 C-19.52957339 19.99736322 -19.51881724 17.92145896 -19.50170898 15.84399414 C-19.50154282 14.66438614 -19.50137665 13.48477814 -19.50120544 12.26942444 C-18.7736918 7.52376391 -16.49402319 4.44819426 -13.08984375 1.1484375 C-9.02820228 -1.08356734 -4.4894064 -0.48768849 0 0 Z " fill="#FBFBFB" transform="translate(112,105)"/>
<path d="M0 0 C5.28 0 10.56 0 16 0 C16.33 14.85 16.66 29.7 17 45 C23.93 38.07 23.93 38.07 31 31 C35.85215986 29.8871193 37.81051135 29.51950661 42.375 30.125 C43.3134375 30.18816406 44.251875 30.25132813 45.21875 30.31640625 C47.49353939 30.47889121 49.73919878 30.70550686 52 31 C47.76183463 36.06623768 43.32591037 40.80038069 38.625 45.4375 C37.66400391 46.39172852 37.66400391 46.39172852 36.68359375 47.36523438 C35.12469121 48.91250332 33.56348584 50.45736492 32 52 C33.53660728 55.666116 35.74589914 57.96353371 38.5703125 60.73046875 C39.46621094 61.61541016 40.36210937 62.50035156 41.28515625 63.41210938 C42.69087891 64.78592773 42.69087891 64.78592773 44.125 66.1875 C45.98493222 68.01116701 47.8407461 69.83882569 49.6953125 71.66796875 C50.52047363 72.47516357 51.34563477 73.2823584 52.19580078 74.11401367 C54 76 54 76 54 77 C37.81792952 79.3875186 37.81792952 79.3875186 31.51464844 75.44580078 C26.97497195 71.6095748 23.08817021 67.21525644 19.37841797 62.58227539 C18.06802465 60.8754091 18.06802465 60.8754091 16 60 C16 65.61 16 71.22 16 77 C10.72 77 5.44 77 0 77 C0 51.59 0 26.18 0 0 Z " fill="#030303" transform="translate(421,34)"/>
<path d="M0 0 C5.22737826 3.56844169 8.58030612 7.07716722 11 13 C11.88433293 19.86752237 12.09676545 27.1915607 8.38671875 33.2578125 C3.44150635 39.4706709 -2.09090514 43.64138248 -10 45 C-19.25920899 45.93057377 -27.50042625 45.20005254 -35.06640625 39.421875 C-41.32406009 33.621461 -43.15079929 28.46122487 -43.5 20.0625 C-43.30786142 11.83547534 -40.90534434 7.97291049 -35.3125 2.25 C-24.50333642 -5.88444708 -11.81857986 -6.09702834 0 0 Z " fill="#040404" transform="translate(362,154)"/>
<path d="M0 0 C5.25868559 3.23788065 9.28566409 7.96573376 11.9375 13.5 C12.5 16.5 12.5 16.5 12.5 24.5 C1.28 24.5 -9.94 24.5 -21.5 24.5 C-18.98447675 30.29014432 -18.98447675 30.29014432 -14.5 33.5 C-10.14370361 34.0753599 -7.55175571 33.73386158 -3.9375 31.375 C-0.5 29.5 -0.5 29.5 2.5625 30.0625 C3.531875 30.536875 4.50125 31.01125 5.5 31.5 C6.61375 32.03625 7.7275 32.5725 8.875 33.125 C9.74125 33.57875 10.6075 34.0325 11.5 34.5 C8.80228149 40.05412635 4.6541773 42.92015901 -0.73828125 45.62109375 C-7.42027256 47.74761149 -17.53157166 47.89001658 -24 45.0625 C-29.51578758 41.61819709 -34.01283546 36.35039871 -37 30.625 C-38.1268159 23.58240064 -38.63948494 16.77620605 -34.96875 10.41796875 C-26.66256565 -0.42867093 -13.18532693 -5.85438878 0 0 Z " fill="#050505" transform="translate(511.5,65.5)"/>
<path d="M0 0 C5.42203099 3.18171928 9.81587611 6.92780493 11.77734375 13.04296875 C11.77734375 16.67296875 11.77734375 20.30296875 11.77734375 24.04296875 C0.88734375 24.04296875 -10.00265625 24.04296875 -21.22265625 24.04296875 C-19.04336089 30.55946181 -19.04336089 30.55946181 -16.53515625 32.48046875 C-13.0591356 33.32598729 -9.74405414 33.65569198 -6.22265625 33.04296875 C-4.52943686 31.74352131 -2.85869821 30.41370661 -1.22265625 29.04296875 C3.34895143 29.04296875 6.97556551 31.73208394 10.77734375 34.04296875 C9.61758577 38.55313866 7.46914802 40.36318914 3.82421875 42.9296875 C-3.66267699 47.00175866 -12.44595836 47.20924214 -20.69921875 45.54296875 C-27.95203373 43.07869185 -32.85366622 38.46230653 -36.30078125 31.76953125 C-38.3703897 25.64840118 -38.51741324 18.73718364 -36.37109375 12.61328125 C-28.89916419 -0.44988812 -14.12519533 -6.36081735 0 0 Z " fill="#040404" transform="translate(300.22265625,65.95703125)"/>
<path d="M0 0 C4.98766494 2.07486861 8.42514064 6.16278128 10.8125 10.9375 C10.89925538 13.63643181 10.92807897 16.30919231 10.91015625 19.0078125 C10.9087413 19.80404022 10.90732635 20.60026794 10.90586853 21.42062378 C10.90026345 23.9679538 10.88771014 26.51519647 10.875 29.0625 C10.86998565 30.78775915 10.86542263 32.51301967 10.86132812 34.23828125 C10.85114253 38.47141504 10.8315682 42.70435954 10.8125 46.9375 C5.5325 46.9375 0.2525 46.9375 -5.1875 46.9375 C-5.22488281 44.73449219 -5.26226562 42.53148437 -5.30078125 40.26171875 C-5.3469998 38.12693379 -5.39823195 35.99232395 -5.44995117 33.85766602 C-5.48319423 32.37470146 -5.51122823 30.89161056 -5.53393555 29.40844727 C-5.56749468 27.27565707 -5.61980638 25.14402388 -5.67578125 23.01171875 C-5.70196533 21.72869873 -5.72814941 20.44567871 -5.75512695 19.1237793 C-5.94041591 16.0014752 -5.94041591 16.0014752 -7.47338867 14.02270508 C-9.9082637 12.481184 -12.32861119 12.52301702 -15.15234375 12.44140625 C-18.16749207 13.17638482 -19.26599833 14.52058624 -21.1875 16.9375 C-21.82893328 20.21866076 -21.82893328 20.21866076 -21.796875 23.890625 C-21.81341125 24.55084656 -21.82994751 25.21106812 -21.84698486 25.89129639 C-21.89538451 27.99012626 -21.91681519 30.08823222 -21.9375 32.1875 C-21.96566683 33.6146196 -21.99559528 35.04170559 -22.02734375 36.46875 C-22.10444649 39.95866347 -22.14502807 43.44630769 -22.1875 46.9375 C-27.4675 46.9375 -32.7475 46.9375 -38.1875 46.9375 C-38.1875 31.7575 -38.1875 16.5775 -38.1875 0.9375 C-32.9075 0.9375 -27.6275 0.9375 -22.1875 0.9375 C-21.8575 1.9275 -21.5275 2.9175 -21.1875 3.9375 C-20.71441406 3.5765625 -20.24132812 3.215625 -19.75390625 2.84375 C-13.14114714 -1.79678271 -7.69779422 -2.33133196 0 0 Z " fill="#070707" transform="translate(270.1875,151.0625)"/>
<path d="M0 0 C4.90033998 2.09726485 8.33327263 6.22904526 10.6875 10.9375 C10.77417255 13.56377133 10.80310135 16.16312483 10.78515625 18.7890625 C10.7837413 19.56309418 10.78232635 20.33712585 10.78086853 21.13461304 C10.77526403 23.61061442 10.76271083 26.08652588 10.75 28.5625 C10.74498558 30.23958203 10.74042257 31.91666547 10.73632812 33.59375 C10.72614336 37.70839597 10.70656894 41.82284715 10.6875 45.9375 C5.4075 45.9375 0.1275 45.9375 -5.3125 45.9375 C-5.33828125 43.81828125 -5.3640625 41.6990625 -5.390625 39.515625 C-5.42906887 37.45689774 -5.47422095 35.39841898 -5.52001953 33.33984375 C-5.54819611 31.91223063 -5.56942727 30.48446247 -5.58349609 29.05664062 C-5.60497392 27.00049668 -5.65163974 24.94620998 -5.703125 22.890625 C-5.72407227 21.65473633 -5.74501953 20.41884766 -5.76660156 19.14550781 C-6.40517867 15.39286773 -7.29150293 14.18571584 -10.3125 11.9375 C-14.24724728 11.26775578 -15.78584208 11.58639472 -19.125 13.8125 C-22.63903991 17.22613877 -22.47755291 19.45774956 -22.62890625 24.2578125 C-22.67080078 25.51464844 -22.71269531 26.77148438 -22.75585938 28.06640625 C-22.79517578 29.38511719 -22.83449219 30.70382813 -22.875 32.0625 C-22.91819512 33.40235751 -22.96180973 34.74220156 -23.00585938 36.08203125 C-23.1122091 39.3670562 -23.21288317 42.65226398 -23.3125 45.9375 C-28.5925 45.9375 -33.8725 45.9375 -39.3125 45.9375 C-39.3125 30.7575 -39.3125 15.5775 -39.3125 -0.0625 C-34.0325 -0.0625 -28.7525 -0.0625 -23.3125 -0.0625 C-22.9825 1.2575 -22.6525 2.5775 -22.3125 3.9375 C-21.384375 3.1125 -20.45625 2.2875 -19.5 1.4375 C-13.67275749 -2.71470519 -6.61281592 -2.01424853 0 0 Z " fill="#050505" transform="translate(756.3125,65.0625)"/>
<path d="M0 0 C2.1640625 0.74609375 2.1640625 0.74609375 5.6640625 2.43359375 C6.6640625 5.43359375 6.6640625 5.43359375 5.66796875 7.6953125 C4.95447266 8.89607422 4.95447266 8.89607422 4.2265625 10.12109375 C3.75347656 10.92933594 3.28039062 11.73757812 2.79296875 12.5703125 C2.42042969 13.18519531 2.04789062 13.80007812 1.6640625 14.43359375 C0.5503125 14.39234375 -0.5634375 14.35109375 -1.7109375 14.30859375 C-5.37959775 14.02237516 -5.37959775 14.02237516 -7.3359375 16.43359375 C-7.6423234 19.16794337 -7.8472711 21.81639196 -7.9609375 24.55859375 C-7.99960937 25.31269531 -8.03828125 26.06679687 -8.078125 26.84375 C-8.17244781 28.70662559 -8.25528412 30.5700763 -8.3359375 32.43359375 C-4.7059375 32.43359375 -1.0759375 32.43359375 2.6640625 32.43359375 C2.6640625 36.39359375 2.6640625 40.35359375 2.6640625 44.43359375 C-0.9659375 44.43359375 -4.5959375 44.43359375 -8.3359375 44.43359375 C-8.3359375 55.65359375 -8.3359375 66.87359375 -8.3359375 78.43359375 C-13.6159375 78.43359375 -18.8959375 78.43359375 -24.3359375 78.43359375 C-24.3359375 66.88359375 -24.3359375 55.33359375 -24.3359375 43.43359375 C-26.3159375 43.43359375 -28.2959375 43.43359375 -30.3359375 43.43359375 C-30.3359375 39.47359375 -30.3359375 35.51359375 -30.3359375 31.43359375 C-28.3559375 31.43359375 -26.3759375 31.43359375 -24.3359375 31.43359375 C-24.38234375 30.46679688 -24.42875 29.5 -24.4765625 28.50390625 C-24.71984354 19.72841156 -24.87278442 11.36450978 -18.58203125 4.52734375 C-12.75425396 -0.63127331 -7.69117623 -1.86491731 0 0 Z " fill="#070707" transform="translate(316.3359375,119.56640625)"/>
<path d="M0 0 C0.67256836 -0.01015137 1.34513672 -0.02030273 2.03808594 -0.03076172 C7.0601011 0.05641752 10.51466706 1.26921909 14.9375 3.4375 C13.8280928 6.92420834 12.67412334 10.21234237 10.9375 13.4375 C9.9475 13.2725 8.9575 13.1075 7.9375 12.9375 C3.91017058 12.35275483 0.00275377 12.36617976 -4.0625 12.4375 C-4.0625 13.4275 -4.0625 14.4175 -4.0625 15.4375 C-2.95390625 15.87320313 -1.8453125 16.30890625 -0.703125 16.7578125 C0.7608156 17.35840352 2.22433557 17.96002053 3.6875 18.5625 C4.41710937 18.84609375 5.14671875 19.1296875 5.8984375 19.421875 C10.85949848 21.4965005 13.45448672 23.44580922 15.9375 28.4375 C16.8538938 32.76691952 16.22333788 36.59586624 14.8125 40.75 C11.96716824 44.82830886 8.61325011 46.87891663 3.9375 48.4375 C-6.10065533 49.18741555 -14.45179253 49.36132824 -23.0625 43.4375 C-21.51907029 39.35644938 -19.56315501 36.02177218 -17.0625 32.4375 C-12.3125 34.3125 -12.3125 34.3125 -10.0625 35.4375 C-8.52581135 35.66217831 -6.98281946 35.84546805 -5.4375 36 C-4.62023437 36.08378906 -3.80296875 36.16757813 -2.9609375 36.25390625 C-2.02121094 36.34478516 -2.02121094 36.34478516 -1.0625 36.4375 C-1.19432021 33.987559 -1.19432021 33.987559 -2.0625 31.4375 C-4.15216439 30.14165065 -4.15216439 30.14165065 -6.75 29.4375 C-12.21344039 27.49911199 -15.8698165 25.32785552 -19.4375 20.625 C-20.86801109 15.61821118 -20.70498658 11.82955426 -18.5625 7.1875 C-13.11000582 1.18975641 -8.0281704 0.08658192 0 0 Z " fill="#050505" transform="translate(635.0625,63.5625)"/>
<path d="M0 0 C0.70382812 0.00580078 1.40765625 0.01160156 2.1328125 0.01757812 C7.43043979 0.15001881 11.41640101 1.02070051 16.125 3.375 C14.475 6.675 12.825 9.975 11.125 13.375 C3.7 12.385 3.7 12.385 -3.875 11.375 C-3.875 13.025 -3.875 14.675 -3.875 16.375 C-3.17375 16.52195312 -2.4725 16.66890625 -1.75 16.8203125 C4.89927086 18.39228686 10.27903975 20.40758711 15.125 25.375 C17.47557235 29.2206905 17.80686913 32.95989738 17.125 37.375 C14.70240433 42.22019135 11.78803117 44.69623742 7.125 47.375 C0.02081938 49.74306021 -10.97878504 49.83987169 -17.875 46.625 C-20.875 44.375 -20.875 44.375 -21.71484375 42.5 C-21.92991455 39.64637772 -21.03517887 38.46306664 -19.4375 36.125 C-18.96441406 35.41859375 -18.49132812 34.7121875 -18.00390625 33.984375 C-17.63136719 33.45328125 -17.25882812 32.9221875 -16.875 32.375 C-12.125 34.25 -12.125 34.25 -9.875 35.375 C-8.33476004 35.44450541 -6.79165012 35.45952357 -5.25 35.4375 C-4.02410156 35.42396484 -4.02410156 35.42396484 -2.7734375 35.41015625 C-2.14695312 35.39855469 -1.52046875 35.38695312 -0.875 35.375 C-0.84630737 33.46714266 -0.84630737 33.46714266 -1.875 31.375 C-4.17271657 30.03515505 -6.32891064 28.9333205 -8.75 27.875 C-16.87100425 24.28207085 -16.87100425 24.28207085 -18.875 20.375 C-19.65694405 16.0612753 -19.85633985 11.46349249 -17.9609375 7.4296875 C-13.26610861 1.40213298 -7.30612497 -0.14529226 0 0 Z " fill="#050505" transform="translate(337.875,63.625)"/>
<path d="M0 0 C5.28 0 10.56 0 16 0 C16 15.51 16 31.02 16 47 C10.72 47 5.44 47 0 47 C0 31.49 0 15.98 0 0 Z " fill="#090909" transform="translate(206,151)"/>
<path d="M0 0 C4.60998529 2.2852073 7.29858431 5.49703054 9.0078125 10.33984375 C9.65127756 15.57948782 8.88800243 18.92355252 6.0078125 23.33984375 C2.35862408 26.95010749 -0.54837814 29.2195263 -5.7421875 29.65234375 C-10.16474403 29.58824873 -12.57703439 28.21167705 -15.9921875 25.33984375 C-20.03834151 20.85626768 -21.37054548 17.5154102 -21.26953125 11.3984375 C-20.63621559 6.69762973 -17.71522362 3.9788059 -14.3046875 0.96484375 C-9.45804911 -1.41275244 -5.15776301 -1.70914108 0 0 Z " fill="#F9F9F9" transform="translate(112.9921875,69.66015625)"/>
<path d="M0 0 C4.95 0 9.9 0 15 0 C15 15.18 15 30.36 15 46 C10.05 46 5.1 46 0 46 C0 30.82 0 15.64 0 0 Z " fill="#000000" transform="translate(590,65)"/>
<path d="M0 0 C3.6578218 2.03993908 5.66946174 3.50419262 8 7 C8.48256365 11.26264558 8.26873267 13.49132744 6.25 17.3125 C3.04340948 21.14259424 1.50448865 21.83587397 -3.4375 22.375 C-7.62750939 21.93394638 -9.093893 20.98913863 -12 18 C-14.28853994 14.73065722 -14.47162218 11.9301848 -14 8 C-12.34976991 4.93528698 -10.943924 2.69221093 -8.125 0.625 C-5.18891172 -0.23855538 -3.05485074 -0.36658209 0 0 Z " fill="#F4F4F4" transform="translate(557,77)"/>
<path d="M0 0 C3.63332579 2.9727211 4.52535989 4.52775915 5.125 9.125 C4.64541545 13.12153796 3.28260567 15.15459308 0.75 18.25 C-2.65798172 20.83536545 -6.0907151 20.68781946 -10.25 20.25 C-13.6621353 18.12689359 -15.99948744 16.11522064 -17.25 12.25 C-17.76555338 8.2974241 -17.40914688 6.5455585 -15.5 3 C-11.07554167 -2.40767129 -6.28755102 -3.38560439 0 0 Z " fill="#F5F5F5" transform="translate(688.25,78.75)"/>
<path d="M0 0 C2.92837797 2.45027545 4.56680768 4.19920878 5.47265625 7.96484375 C5.76870317 11.91972697 5.12212999 14.33838332 2.625 17.4375 C-0.45298144 20.44219617 -1.06466966 20.92940903 -5.3125 21.25 C-9.24058469 20.98368917 -10.95647943 20.43481646 -14 18 C-16.31069059 15.0291121 -16.47087809 11.74838896 -16.39453125 8.03515625 C-15.68647817 4.38272403 -13.62465368 2.56216192 -11 0 C-7.45804654 -1.77097673 -3.72833681 -1.02850671 0 0 Z " fill="#F8F8F8" transform="translate(236,78)"/>
<path d="M0 0 C3.02508145 1.73602105 5.41790069 3.83580137 7 7 C7.22455057 11.96940167 6.68307821 15.1632292 3.5 19.0625 C0.19295563 21.34954032 -2.91543283 21.73332314 -6.87890625 21.47265625 C-10.58826263 20.64607776 -11.95175535 19.13637463 -14 16 C-15.01062385 12.91135183 -15.40353827 10.23398982 -15 7 C-11.69021659 0.75683993 -6.83956798 -1.16742162 0 0 Z " fill="#F8F8F8" transform="translate(350,164)"/>
<path d="M0 0 C3.6578218 2.03993908 5.66946174 3.50419262 8 7 C8.4606067 11.97455239 8.16781812 15.06753613 5 19 C2.24116669 21.16232881 0.48457897 21.93942763 -3 22.375 C-6.42422442 21.94697195 -8.25223913 21.06082066 -11 19 C-13.48239134 15.276413 -13.59530761 12.91116145 -13.51171875 8.51953125 C-12.75031753 4.77064737 -10.99047197 3.16503247 -7.93359375 1 C-4.99910036 -0.51763699 -3.23219103 -0.68770022 0 0 Z " fill="#F8F8F8" transform="translate(388,77)"/>
<path d="M0 0 C2.70567626 1.82339052 4.53728718 3.07457436 6 6 C6.17157511 9.79703187 6.02377702 13.49708155 3.83984375 16.703125 C1.17196247 19.17891882 -0.99860665 19.99978 -4.5625 20.5625 C-8.52374737 19.91429589 -10.18799374 18.81200626 -13 16 C-14.73631636 12.52736727 -14.60190402 8.78806987 -14 5 C-9.54542867 -0.62682695 -6.93538616 -1.52813593 0 0 Z " fill="#070707" transform="translate(394,179)"/>
<path d="M0 0 C3.66836289 0.28218176 5.36413765 1.0054404 8.25 3.25 C10.35101595 5.9240203 10.24846976 7.29284685 10.125 10.75 C9.17565772 14.54736911 8.27747709 15.86471502 5.25 18.25 C2.39675563 19.67662219 0.41545451 19.56033868 -2.75 19.25 C-5.81893364 17.68143392 -7.33955338 16.46546624 -8.45703125 13.15625 C-8.89326329 10.71008905 -9.06660466 8.71687801 -8.75 6.25 C-6.375 3.25 -6.375 3.25 -3.75 1.25 C-2.75 0.25 -2.75 0.25 0 0 Z " fill="#090909" transform="translate(213.75,122.75)"/>
<path d="M0 0 C2.75329021 1.79562405 4.52627461 3.05254922 6 6 C6.55358359 10.05961302 6.12772011 11.77751981 4.0625 15.375 C1.73057442 17.88630447 -0.09778331 18.51144724 -3.5 18.75 C-6.90221669 18.51144724 -8.73057442 17.88630447 -11.0625 15.375 C-13.17027232 11.70339661 -13.79149224 10.13334836 -13 6 C-9.24647283 0.36970925 -6.73139654 -0.57045733 0 0 Z " fill="#060606" transform="translate(601,37)"/>
<path d="M0 0 C1.77734375 1.3671875 1.77734375 1.3671875 3 3 C3 3.99 3 4.98 3 6 C-2.61 6 -8.22 6 -14 6 C-13 2 -13 2 -11.5 0.1875 C-7.70810278 -1.61365118 -3.9906382 -1.16118018 0 0 Z " fill="#F5F5F5" transform="translate(505,75)"/>
<path d="M0 0 C2.875 1.25 2.875 1.25 5 3 C5.33 4.32 5.66 5.64 6 7 C0.39 7 -5.22 7 -11 7 C-9.28740019 0.14960077 -7.00737734 -0.7249011 0 0 Z " fill="#F4F4F4" transform="translate(291,74)"/>
</svg>
